<svg width="64" height="64" viewBox="0 0 64 64" xmlns="http://www.w3.org/2000/svg">
  <defs>
    <linearGradient id="gradient" x1="0%" y1="0%" x2="100%" y2="100%">
      <stop offset="0%" style="stop-color:#3b82f6;stop-opacity:1" />
      <stop offset="100%" style="stop-color:#8b5cf6;stop-opacity:1" />
    </linearGradient>
  </defs>
  <rect width="64" height="64" rx="12" ry="12" fill="url(#gradient)" />
  <g transform="translate(16, 16)">
    <svg width="32" height="32" viewBox="0 0 24 24" fill="none" stroke="white" strokeWidth="2" strokeLinecap="round" strokeLinejoin="round">
      <circle cx="13.5" cy="6.5" r=".5" fill="currentColor" /><circle cx="17.5" cy="10.5" r=".5" fill="currentColor" /><circle cx="8.5" cy="7.5" r=".5" fill="currentColor" /><circle cx="6.5" cy="12.5" r=".5" fill="currentColor" /><path d="M12,2C6.5,2,2,6.5,2,12s4.5,10,10,10c.926,0,1.648-.746,1.648-1.688,0-.437-.18-.835-.437-1.125-.29-.289-.438-.652-.438-1.125a1.64,1.64,0,0,1,1.668-1.668h1.996c3.051,0,5.555-2.503,5.555-5.554C21.965,6.012,17.461,2,12,2Z" />
    </svg>
  </g>
</svg>